<?xml version="1.0" encoding="utf-8"?>
<!-- Generator: Adobe Illustrator 18.1.1, SVG Export Plug-In . SVG Version: 6.00 Build 0)  -->
<!DOCTYPE svg PUBLIC "-//W3C//DTD SVG 1.1//EN" "http://www.w3.org/Graphics/SVG/1.1/DTD/svg11.dtd">
<svg version="1.1" id="Layer_1" xmlns="http://www.w3.org/2000/svg" xmlns:xlink="http://www.w3.org/1999/xlink" x="0px" y="0px"
	 width="50px" height="50px" viewBox="0 0 50 50" enable-background="new 0 0 50 50" xml:space="preserve">
<path fill="#212121" d="M29.4,6.6c0.1,0.4-0.3,0.7-0.6,0.6c-1.3-0.3-2.7-0.5-4.1-0.5c-1.4,0-2.8,0.2-4.1,0.5
	c-0.4,0.1-0.7-0.2-0.6-0.6c0.5-2.2,2.4-3.8,4.7-3.8C27,2.8,29,4.4,29.4,6.6z"/>
<path fill="#212121" d="M39.8,15.1c-1.4-2.3-3.4-4.3-5.8-5.8c-0.3-0.2-0.3-0.7,0-0.9c1.9-1.2,4.4-1,6,0.7c1.6,1.6,1.8,4.1,0.7,6
	C40.4,15.4,40,15.4,39.8,15.1z"/>
<path fill="#212121" d="M46.3,24.3c0,2.3-1.6,4.2-3.8,4.7c-0.4,0.1-0.7-0.3-0.6-0.6c0.3-1.3,0.5-2.7,0.5-4.1c0-1.4-0.2-2.8-0.5-4.1
	c-0.1-0.4,0.2-0.7,0.6-0.6C44.7,20.1,46.3,22,46.3,24.3z"/>
<path fill="#212121" d="M40,39.6c-1.6,1.6-4.1,1.8-6,0.7c-0.3-0.2-0.3-0.7,0-0.9c2.4-1.4,4.3-3.4,5.8-5.8c0.2-0.3,0.7-0.3,0.9,0
	C41.8,35.4,41.6,38,40,39.6z"/>
<path fill="#212121" d="M28.8,41.5c0.4-0.1,0.7,0.2,0.6,0.6c-0.5,2.2-2.4,3.8-4.7,3.8c-2.3,0-4.2-1.6-4.7-3.8
	c-0.1-0.4,0.3-0.7,0.6-0.6c1.3,0.3,2.7,0.5,4.1,0.5C26.1,42,27.5,41.8,28.8,41.5z"/>
<path fill="#212121" d="M15.5,39.4c0.3,0.2,0.3,0.7,0,0.9c-1.9,1.2-4.4,1-6-0.7c-1.6-1.6-1.9-4.1-0.7-6c0.2-0.3,0.7-0.3,0.9,0
	C11.1,35.9,13.1,37.9,15.5,39.4z"/>
<path fill="#212121" d="M7.1,24.3c0,1.4,0.2,2.8,0.5,4.1c0.1,0.4-0.2,0.7-0.6,0.6c-2.2-0.5-3.8-2.4-3.8-4.7c0-2.3,1.6-4.2,3.8-4.7
	c0.4-0.1,0.7,0.3,0.6,0.6C7.2,21.6,7.1,22.9,7.1,24.3z"/>
<path fill="#212121" d="M15.5,9.3c-2.4,1.4-4.3,3.4-5.8,5.8c-0.2,0.3-0.7,0.3-0.9,0c-1.2-1.9-1-4.4,0.7-6c1.6-1.6,4.1-1.9,6-0.7
	C15.8,8.6,15.8,9.1,15.5,9.3z"/>
<circle fill="none" stroke="#212121" stroke-width="3" stroke-linecap="round" stroke-miterlimit="10" stroke-dasharray="2.0615,7.2153" cx="24.7" cy="24.3" r="14.8"/>
</svg>
