<?xml version="1.0" encoding="utf-8"?>
<!-- Generator: Adobe Illustrator 18.1.1, SVG Export Plug-In . SVG Version: 6.00 Build 0)  -->
<!DOCTYPE svg PUBLIC "-//W3C//DTD SVG 1.1//EN" "http://www.w3.org/Graphics/SVG/1.1/DTD/svg11.dtd">
<svg version="1.1" id="Layer_1" xmlns="http://www.w3.org/2000/svg" xmlns:xlink="http://www.w3.org/1999/xlink" x="0px" y="0px"
	 width="50px" height="50px" viewBox="0 0 50 50" enable-background="new 0 0 50 50" xml:space="preserve">
<path d="M24.1,40.1c-1.1,0-2.2-0.5-2.9-1.4c-0.6,0.3-1.2,0.5-1.8,0.5c-1.6,0-3-1.1-3.5-2.6c-1.3,0.1-2.5-0.4-3.3-1.4
	c-0.6-0.8-0.8-1.7-0.8-2.7c-0.5-0.2-0.9-0.4-1.3-0.7l-7,1.2l3.9-5.5l-5.5-4l6.9-1.2c0.2-0.4,0.5-0.7,0.9-1c-0.5-1-0.6-2.2-0.2-3.2
	c0.4-1,1.3-1.8,2.4-2.2c-0.1-1,0.2-1.9,0.8-2.7c0.8-1,2-1.5,3.4-1.4c0.5-1.6,1.9-2.7,3.5-2.7c0.6,0,1.2,0.1,1.8,0.4
	c0.8-0.9,1.8-1.3,2.9-1.3c1.1,0,2.2,0.5,2.9,1.4c0.6-0.3,1.2-0.5,1.8-0.5c1.6,0,3,1.1,3.5,2.6c1.3-0.1,2.5,0.4,3.3,1.4
	c0.6,0.8,0.8,1.7,0.8,2.7c1.3,0.4,2.2,1.4,2.6,2.6l7.3-1.2l-3.9,5.5l5.5,4l-8.9,1.5c0.1,0.8,0,1.7-0.4,2.4c-0.5,0.8-1.2,1.4-2.2,1.7
	c0.1,1-0.2,1.9-0.8,2.7c-0.7,0.9-1.8,1.4-3,1.4l0,0c-0.1,0-0.3,0-0.4,0c-0.5,1.6-1.9,2.7-3.5,2.7c-0.6,0-1.2-0.1-1.8-0.4
	C26.2,39.6,25.2,40.1,24.1,40.1z M21.6,36.5l0.4,0.7c0.5,0.8,1.2,1.3,2.1,1.3c0.8,0,1.5-0.5,2-1.2l0.4-0.7l0.7,0.5
	c0.5,0.4,1,0.5,1.5,0.5c1.1,0,2-0.9,2.2-2.2l0.1-0.8l0.8,0.2c0.3,0.1,0.5,0.1,0.8,0.1l0,0c0.7,0,1.4-0.3,1.8-0.8
	c0.4-0.6,0.6-1.3,0.4-2.1l-0.2-0.8l0.8-0.1c0.8-0.1,1.5-0.6,1.8-1.2c0.2-0.4,0.3-0.9,0.2-1.4l-4.5,0.8c-1.8,3.1-5.2,5.1-8.8,5.1
	c-3.1,0-5.9-1.3-7.9-3.7l-2.6,0.4l-0.2,0.8c-0.2,0.8-0.1,1.6,0.4,2.2c0.5,0.7,1.5,1,2.5,0.8l0.8-0.2l0.1,0.8
	c0.2,1.2,1.1,2.1,2.2,2.1c0.5,0,1.1-0.2,1.6-0.6L21.6,36.5z M16.8,29l0.3,0.4c1.7,2.2,4.2,3.5,7,3.5c3.2,0,6.2-1.8,7.7-4.6L32,28
	l12.2-2.1l-3.8-2.7l2.7-3.8l-10.7,1.8l-0.2-0.5c-1.4-3.2-4.5-5.3-8-5.3c-4.1,0-7.6,2.8-8.5,6.7l-0.1,0.5l-7.7,1.2l0,0l-2.3,0.4
	l3.8,2.7l-2.7,3.8l2.4-0.4l0,0L16.8,29z M15.5,13.3c-0.7,0-1.4,0.3-1.8,0.8c-0.4,0.6-0.6,1.3-0.4,2.1l0.2,0.8l-0.8,0.1
	c-0.9,0.1-1.6,0.7-1.9,1.4c-0.3,0.8-0.2,1.6,0.4,2.4l0.5,0.7l-0.1,0.1l2.7-0.4c1.3-4.4,5.3-7.4,9.8-7.4c3.9,0,7.4,2.2,9.2,5.6
	l4.3-0.7c-0.3-0.8-1-1.4-2-1.5l-0.8-0.1l0.2-0.8c0.2-0.8,0.1-1.6-0.4-2.2c-0.5-0.7-1.5-1-2.5-0.8l-0.8,0.2l-0.2-0.9
	c-0.2-1.3-1.1-2.1-2.2-2.1c-0.5,0-1.1,0.2-1.6,0.6l-0.7,0.5L26.2,11c-0.5-0.8-1.3-1.3-2.1-1.3s-1.5,0.5-2,1.2l-0.4,0.7l-0.6-0.5
	c-0.5-0.4-1-0.5-1.5-0.5c-1.2,0-2,0.9-2.2,2.2l-0.1,0.8l-0.8-0.2C16,13.3,15.7,13.3,15.5,13.3z M24.1,31c-3.8,0-6.9-3.1-6.9-6.8
	s3.1-6.9,6.9-6.9s6.8,3.1,6.8,6.9S27.8,31,24.1,31z M18.7,24.1c0,3,2.4,5.3,5.4,5.3s5.3-2.4,5.3-5.3s-2.4-5.4-5.3-5.4
	C21.1,18.8,18.7,21.2,18.7,24.1z M24.6,20.8c0.4,0,0.7,0,1.1,0.1c0.3,0.1,0.6,0.2,0.9,0.3c0.3,0.1,0.5,0.3,0.6,0.5
	c0.2,0.2,0.2,0.5,0.2,0.8c0,0.4-0.1,0.7-0.3,0.9c-0.2,0.2-0.5,0.4-0.8,0.5v0c0.4,0.1,0.7,0.3,1,0.5s0.4,0.6,0.4,1
	c0,0.2-0.1,0.5-0.2,0.7c-0.1,0.2-0.3,0.4-0.5,0.5c-0.2,0.2-0.5,0.3-0.8,0.4c-0.3,0.1-0.6,0.1-1,0.1h-4.4v-0.2c0.2,0,0.3-0.1,0.3-0.2
	v-5.4c0-0.1-0.1-0.2-0.3-0.2v-0.2H24.6z M24.8,23.3c0.4,0,0.7,0,0.9-0.1c0.2-0.1,0.4-0.3,0.4-0.6s-0.1-0.5-0.4-0.6
	c-0.2-0.1-0.5-0.1-0.9-0.1h-2.3v1.4H24.8z M24.8,26c0.5,0,0.9-0.1,1.1-0.2c0.2-0.2,0.3-0.4,0.3-0.6c0-0.3-0.1-0.5-0.3-0.6
	c-0.2-0.2-0.6-0.2-1.1-0.2h-2.3V26H24.8z"/>
</svg>
