<?xml version="1.0" encoding="utf-8"?>
<!-- Generator: Adobe Illustrator 18.1.1, SVG Export Plug-In . SVG Version: 6.00 Build 0)  -->
<!DOCTYPE svg PUBLIC "-//W3C//DTD SVG 1.1//EN" "http://www.w3.org/Graphics/SVG/1.1/DTD/svg11.dtd">
<svg version="1.1" id="Layer_1" xmlns="http://www.w3.org/2000/svg" xmlns:xlink="http://www.w3.org/1999/xlink" x="0px" y="0px"
	 width="50px" height="50px" viewBox="0 0 50 50" enable-background="new 0 0 50 50" xml:space="preserve">
<path fill="#212121" d="M41,21.9c1.7-2.4,0.5-5.4-2.5-5.8c0.8-2.9-1.5-5.2-4.4-4.6c-0.5-2.9-3.5-4.2-5.9-2.3
	c-1.5-2.6-4.7-2.6-6.3-0.1c-2.4-1.7-5.4-0.5-5.8,2.5c-2.9-0.8-5.2,1.5-4.6,4.4c-2.9,0.5-4.2,3.5-2.3,5.9c-2.6,1.5-2.6,4.7-0.1,6.3
	c-1.7,2.4-0.5,5.4,2.5,5.8c-0.8,2.9,1.5,5.2,4.4,4.6c0.5,2.9,3.5,4.2,5.9,2.3c1.5,2.6,4.7,2.6,6.3,0.1c2.4,1.7,5.4,0.5,5.8-2.5
	c2.9,0.8,5.2-1.5,4.6-4.4c2.9-0.5,4.2-3.5,2.3-5.9C43.4,26.7,43.5,23.5,41,21.9z M25,39c-7.7,0-14-6.3-14-14s6.3-14,14-14
	s14,6.3,14,14S32.7,39,25,39z"/>
</svg>
