<?xml version="1.0" encoding="utf-8"?>
<!-- Generator: Adobe Illustrator 18.1.1, SVG Export Plug-In . SVG Version: 6.00 Build 0)  -->
<!DOCTYPE svg PUBLIC "-//W3C//DTD SVG 1.1//EN" "http://www.w3.org/Graphics/SVG/1.1/DTD/svg11.dtd">
<svg version="1.1" id="Layer_1" xmlns="http://www.w3.org/2000/svg" xmlns:xlink="http://www.w3.org/1999/xlink" x="0px" y="0px"
	 width="50px" height="50px" viewBox="0 0 50 50" enable-background="new 0 0 50 50" xml:space="preserve">
<path fill="#212121" d="M39.5,12.8c-0.7-5.4-4.5-6.7-7.9-6.1c-3.4,0.6-3.7,4.8-3.7,4.8c-2.2,0.3-5.5-2.1-6.1-2.5S20,7,17.1,7.4
	c-2.8,0.3-3.3,3.2-3.3,3.2c0.6,0,5.6,3.6,1.4,10s-4.5,8.6-4.5,8.6l0,0C10.5,30,10.4,31,10.4,32c0,0.2,0,0.1,0,0.3l0,0
	c0,0-0.2,4.8,4.8,10.8h6.3c0.1,0,7.5,0,7.5,0l-0.6-1.1c0,0,1.9-1.2,3.7-4.8l0,0.1c0.8-1.6,1.3-3.3,1.3-5.2c0-1.5-0.3-3-0.9-4.3l0,0
	C38.2,24,40.2,18.3,39.5,12.8z M31.3,25c-0.1-0.2-0.2-0.4-0.3-0.6c-2.9-5.6-2-9.1-1.5-11.4c0.4-2.4,0.9-3.5,2.3-4.4
	c1.4-0.9,7-0.7,6.2,6.8c-0.8,7.5-6.3,10.4-6.3,10.4S31.4,25.2,31.3,25z"/>
</svg>
