<?xml version="1.0" encoding="utf-8"?>
<!-- Generator: Adobe Illustrator 18.1.1, SVG Export Plug-In . SVG Version: 6.00 Build 0)  -->
<!DOCTYPE svg PUBLIC "-//W3C//DTD SVG 1.1//EN" "http://www.w3.org/Graphics/SVG/1.1/DTD/svg11.dtd">
<svg version="1.1" id="Layer_1" xmlns="http://www.w3.org/2000/svg" xmlns:xlink="http://www.w3.org/1999/xlink" x="0px" y="0px"
	 viewBox="85.7 742.7 60.3 60.3" enable-background="new 85.7 742.7 60.3 60.3" xml:space="preserve">
<path fill="#333333" d="M115.9,742.7L115.9,742.7c-8.1,0-15.7,3.1-21.4,8.9c-5.7,5.7-8.8,13.3-8.8,21.3c0,16.6,13.5,30.1,30.1,30.1
	h0c8,0,15.6-3.1,21.3-8.8c5.7-5.7,8.8-13.3,8.8-21.3C146,756.2,132.5,742.7,115.9,742.7z M112.6,771l3.2-7.2l3.2,7.2H112.6z
	 M126.6,796.7V779c0-0.1,0-0.3-0.1-0.4l-8.9-19.6c-0.2-0.3-0.5-0.6-0.9-0.6h-1.9c-0.4,0-0.7,0.2-0.9,0.6l-8.9,19.6
	c-0.1,0.1-0.1,0.3-0.1,0.4v17.7c-4.3-2-8.1-5.1-10.8-9c-3-4.4-4.6-9.5-4.6-14.9c0-14.4,11.8-26.2,26.2-26.2
	c14.4,0,26.2,11.8,26.2,26.2c0,5.3-1.6,10.5-4.6,14.9C134.7,791.6,131,794.7,126.6,796.7z M116.1,788.3c0,0.1-0.1,0.1-0.2,0.1
	c-0.1,0-0.2,0-0.2-0.1l-6.3-9.5c0-0.1-0.1-0.2,0-0.3l1.7-3.7c0-0.1,0.1-0.2,0.2-0.2h9.3c0.1,0,0.2,0.1,0.2,0.2l1.7,3.8
	c0,0.1,0,0.2,0,0.3L116.1,788.3z M109,785.3l6,8.9c0.2,0.3,0.5,0.4,0.8,0.4s0.6-0.2,0.8-0.4l6-8.9v12.8c-2.2,0.6-4.5,0.9-6.8,0.9
	c-2.3,0-4.6-0.3-6.9-0.9L109,785.3L109,785.3z"/>
</svg>
