<?xml version="1.0" encoding="utf-8"?>
<!-- Generator: Adobe Illustrator 18.1.1, SVG Export Plug-In . SVG Version: 6.00 Build 0)  -->
<!DOCTYPE svg PUBLIC "-//W3C//DTD SVG 1.1//EN" "http://www.w3.org/Graphics/SVG/1.1/DTD/svg11.dtd">
<svg version="1.1" id="Layer_1" xmlns="http://www.w3.org/2000/svg" xmlns:xlink="http://www.w3.org/1999/xlink" x="0px" y="0px"
	 width="50px" height="50px" viewBox="0 0 50 50" enable-background="new 0 0 50 50" xml:space="preserve">
<path fill="#212121" d="M25,25c6-6,4-8,2-9c-4-2-6-3-6-6c0.9-1.9,2.7-2.9,3.8-4.6c0.1,0,0.1,0,0.2,0c2.7,0,5.2,0.5,7.5,1.5
	c-1.7,1.2-3.7,1.4-5.3,2.8c-1.2,2.8,0.3,4.5,3.2,7.9C31.8,19.2,32.9,21.8,25,25z"/>
<path fill="#212121" d="M25,25c6,0,9-2,8-5c-2-5-2-6,0-8c1.9-1,3.8-1,5.7-1c1.9,1.8,3.4,4.1,4.4,6.5c-1.8-0.8-3.5-1.5-5.7-1.3
	c-2.6,1.1-3,2-3.1,7.4C34.1,26.7,30.5,27.4,25,25z"/>
<path fill="#212121" d="M17,30c2,5,2,6,0,8c-1.9,1-3.8,1-5.7,1c-1.9-1.9-3.4-4.1-4.4-6.5c1.8,0.8,3.5,1.5,5.7,1.3
	c2.6-1.1,3-2,3.1-7.4c0.3-3.2,3.8-3.8,9.3-1.5C19,25,16,27,17,30z"/>
<path fill="#212121" d="M25,25c-6-6-8-4-9-2c-2,4-3,6-6,6c-1.9-0.9-2.9-2.7-4.6-3.8v0c0-0.1,0-0.1,0-0.2c0-2.7,0.5-5.2,1.5-7.5
	c1.2,1.7,1.4,3.7,2.8,5.3c2.8,1.2,4.5-0.3,7.9-3.2C19.2,18.2,21.8,17.1,25,25z"/>
<path fill="#212121" d="M25,25c0-6-2-9-5-8c-5,2-6,2-8,0c-1-1.9-1-3.8-1-5.7c1.8-1.9,4.1-3.4,6.5-4.4c-0.8,1.8-1.5,3.5-1.3,5.7
	c1.1,2.6,2,3,7.4,3.2C26.7,15.9,27.4,19.5,25,25z"/>
<path fill="#212121" d="M29,40c-0.9,1.9-2.7,2.9-3.8,4.6h0c-0.1,0-0.1,0-0.2,0c-2.7,0-5.2-0.5-7.5-1.5c1.7-1.2,3.7-1.4,5.3-2.8
	c1.2-2.8-0.3-4.5-3.2-7.9c-1.4-1.7-2.5-4.3,5.4-7.5c-6,6-4,8-2,9C27,36,29,37,29,40z"/>
<path fill="#212121" d="M32.5,43.1c0.8-1.8,1.5-3.5,1.3-5.7c-1.1-2.6-2-3-7.4-3.1c-3.2-0.3-3.8-3.8-1.5-9.3c0,6,2,9,5,8c5-2,6-2,8,0
	c1,1.9,1,3.8,1,5.7C37.2,40.6,34.9,42.1,32.5,43.1z"/>
<path fill="#212121" d="M44.6,25c0,2.7-0.5,5.2-1.5,7.5c-1.2-1.6-1.4-3.7-2.8-5.3c-2.8-1.2-4.5,0.3-7.9,3.2
	c-1.7,1.4-4.3,2.5-7.5-5.4c6,6,8,4,9,2c2-4,3-6,6-6c1.9,0.9,2.9,2.7,4.6,3.8v0C44.6,24.8,44.6,24.9,44.6,25z"/>
</svg>
