<?xml version="1.0" encoding="utf-8"?>
<!-- Generator: Adobe Illustrator 18.1.1, SVG Export Plug-In . SVG Version: 6.00 Build 0)  -->
<!DOCTYPE svg PUBLIC "-//W3C//DTD SVG 1.1//EN" "http://www.w3.org/Graphics/SVG/1.1/DTD/svg11.dtd">
<svg version="1.1" id="Layer_1" xmlns="http://www.w3.org/2000/svg" xmlns:xlink="http://www.w3.org/1999/xlink" x="0px" y="0px"
	 width="50px" height="50px" viewBox="0 0 50 50" enable-background="new 0 0 50 50" xml:space="preserve">
<path fill="#212121" d="M48.9,34.2c-1.5-0.6-2.6-4.6-2.6-9.3c0-4.8,1.1-8.7,2.6-9.3c0.3-0.1,0.4-0.4,0.3-0.7
	c-0.1-0.3-0.4-0.4-0.7-0.3c-0.2,0.1-0.4,0.1-0.7,0.1c-2.9,0-8.4-4.8-11-8.8c-1.3-2-1.9-3.7-1.5-4.6c0.1-0.3,0-0.5-0.3-0.7
	c-0.3-0.1-0.5,0-0.7,0.3c-0.6,1.5-4.6,2.6-9.3,2.6c-4.8,0-8.7-1.1-9.3-2.6c-0.1-0.3-0.4-0.4-0.7-0.3c-0.3,0.1-0.4,0.4-0.3,0.7
	C15.1,2.3,14.6,4,13.2,6c-3,4.4-8.4,8.8-11,8.8c-0.2,0-0.5,0-0.7-0.1c-0.3-0.1-0.5,0-0.7,0.3c-0.1,0.3,0,0.5,0.3,0.7
	c1.5,0.6,2.6,4.6,2.6,9.3c0,4.8-1.1,8.7-2.6,9.3c-0.3,0.1-0.4,0.4-0.3,0.7c0.1,0.2,0.3,0.3,0.5,0.3c0.1,0,0.1,0,0.2,0
	C1.7,35.1,1.9,35,2.2,35c2.9,0,8.4,4.8,11,8.8c1.3,2,1.9,3.7,1.5,4.6c-0.1,0.3,0,0.5,0.3,0.7c0.1,0,0.1,0,0.2,0
	c0.2,0,0.4-0.1,0.5-0.3c0.6-1.5,4.6-2.6,9.3-2.6c4.8,0,8.7,1.1,9.3,2.6c0.1,0.2,0.3,0.3,0.5,0.3c0.1,0,0.1,0,0.2,0
	c0.3-0.1,0.4-0.4,0.3-0.7c-0.4-0.9,0.2-2.6,1.5-4.6c3-4.4,8.4-8.8,11-8.8c0.2,0,0.5,0,0.7,0.1c0.1,0,0.1,0,0.2,0
	c0.2,0,0.4-0.1,0.5-0.3C49.2,34.6,49.1,34.3,48.9,34.2z M45.2,24.9c0,2.9,0.4,6.4,1.5,8.5l-4.8-2l0,0c-3.7-1.5-5.8-3.9-5.8-6.5
	c0-2.6,2.1-5,5.8-6.5l4.8-2C45.7,18.5,45.2,22,45.2,24.9z M27.5,22.1c-0.3-0.4-0.3-1-0.1-1.6l3-7.2c0,1.4,0.4,2.6,1.1,3.6
	c1.1,1.6,3,2.6,5.3,2.6l-7.3,3C28.7,22.8,27.8,22.7,27.5,22.1z M28.1,26.2c-0.6,0.1-1.1,0.5-1.5,1c-0.2,0.2-0.3,0.5-0.3,0.8
	c-0.8-0.5-1.8-0.5-2.6,0c-0.1-0.3-0.2-0.6-0.3-0.8c-0.3-0.5-0.9-0.9-1.5-1c0.2-0.4,0.4-0.8,0.4-1.3c0-0.5-0.1-0.9-0.4-1.3
	c0.6-0.1,1.1-0.5,1.5-1c0.2-0.2,0.3-0.5,0.3-0.8c0.8,0.5,1.8,0.5,2.6,0c0.1,0.3,0.2,0.6,0.3,0.8c0.3,0.5,0.9,0.9,1.5,1
	c-0.2,0.4-0.4,0.8-0.4,1.3C27.7,25.4,27.8,25.8,28.1,26.2z M26.5,20.1c-0.3,0.7-0.8,1.1-1.5,1.1s-1.2-0.4-1.5-1.1l-3-7.2
	c1.3,1.2,2.8,1.9,4.5,1.9s3.1-0.7,4.5-1.9L26.5,20.1z M22.6,20.4c0.2,0.6,0.2,1.2-0.1,1.6c-0.4,0.6-1.2,0.8-2,0.4l-7.3-3
	c2.3-0.1,4.2-1,5.3-2.6c0.7-1,1.1-2.3,1.1-3.6L22.6,20.4z M20.2,23.4c0.7,0.3,1.1,0.8,1.1,1.5c0,0.6-0.4,1.2-1.1,1.5l-7.2,3
	c1.2-1.3,1.9-2.8,1.9-4.5c0-1.6-0.7-3.1-1.9-4.5L20.2,23.4z M20.5,27.3c0.8-0.3,1.6-0.1,2,0.4c0.3,0.4,0.3,1,0.1,1.6l-3,7.2
	c0-1.4-0.4-2.6-1.1-3.6c-1.1-1.6-3-2.6-5.2-2.6L20.5,27.3z M23.5,29.7c0.3-0.7,0.8-1.1,1.5-1.1s1.2,0.4,1.5,1.1l3,7.2
	c-1.3-1.2-2.8-1.9-4.5-1.9c-1.6,0-3.1,0.7-4.5,1.9L23.5,29.7z M27.4,29.4c-0.2-0.6-0.2-1.2,0.1-1.6c0.4-0.6,1.2-0.8,2-0.4l7.3,3
	c-2.3,0.1-4.2,1-5.3,2.6c-0.7,1-1,2.3-1.1,3.6L27.4,29.4z M29.8,26.4c-0.7-0.3-1.1-0.8-1.1-1.5c0-0.6,0.4-1.2,1.1-1.5l7.2-3
	c-1.2,1.3-1.9,2.8-1.9,4.5c0,1.6,0.7,3.1,1.9,4.5L29.8,26.4z M35.9,6.6c2.5,3.8,7.1,7.9,10.4,8.9l-4.8,2l0,0c-4,1.7-7.6,1.2-9.2-1.2
	c-1.3-1.9-1.2-4.7,0.1-8l2-4.8C34.7,4.6,35.3,5.7,35.9,6.6z M25,4.7c2.9,0,6.4-0.4,8.5-1.5l-2,4.8l0,0c-1.5,3.7-3.9,5.8-6.5,5.8
	c-2.6,0-5-2.1-6.5-5.8l-2-4.8C18.6,4.2,22.1,4.7,25,4.7z M14.1,6.6c0.6-0.9,1.2-2,1.5-3l2,4.8l0,0c1.3,3.2,1.4,6,0.1,8
	c-1.6,2.4-5.2,2.9-9.2,1.2l0,0l-4.8-2C6.9,14.5,11.5,10.3,14.1,6.6z M4.8,24.9c0-2.9-0.4-6.4-1.5-8.5l4.8,2c3.7,1.5,5.8,3.9,5.8,6.5
	c0,2.6-2.1,5-5.8,6.5l0,0l-4.8,2C4.3,31.3,4.8,27.8,4.8,24.9z M14.1,43.2c-2.5-3.8-7.1-7.9-10.4-8.9l4.8-2c4-1.7,7.6-1.2,9.2,1.2
	c1.3,1.9,1.2,4.7-0.1,8l-2,4.8C15.3,45.2,14.7,44.1,14.1,43.2z M25,45.1c-2.9,0-6.4,0.4-8.5,1.5l2-4.8l0,0c1.5-3.7,3.9-5.8,6.5-5.8
	s5,2.1,6.5,5.8l0,0l2,4.8C31.4,45.6,27.9,45.1,25,45.1z M35.9,43.2c-0.6,0.9-1.2,2-1.5,3.1l-2-4.8c-1.3-3.2-1.4-6-0.1-7.9
	c1.6-2.4,5.2-2.9,9.2-1.2l4.8,2C43.1,35.3,38.5,39.5,35.9,43.2z"/>
</svg>
